<?xml version="1.0" standalone="no"?>
<!DOCTYPE svg PUBLIC "-//W3C//DTD SVG 20010904//EN"
 "http://www.w3.org/TR/2001/REC-SVG-20010904/DTD/svg10.dtd">
<svg version="1.0" xmlns="http://www.w3.org/2000/svg"
 width="264.000000pt" height="264.000000pt" viewBox="0 0 264.000000 264.000000"
 preserveAspectRatio="xMidYMid meet">
<metadata>
Created by potrace 1.11, written by Peter Selinger 2001-2013
</metadata>
<g transform="translate(0.000000,264.000000) scale(0.100000,-0.100000)"
fill="#000000" stroke="none">
<path d="M80 1635 l0 -255 55 0 55 0 0 96 0 95 42 -3 c41 -3 41 -3 90 -95 l50
-93 54 0 c30 0 54 1 54 3 0 1 -25 49 -55 107 -30 57 -54 105 -52 106 1 0 12 7
25 13 60 31 82 143 42 209 -34 56 -85 72 -232 72 l-128 0 0 -255z m234 164
c31 -14 49 -57 40 -93 -8 -35 -51 -56 -114 -56 l-50 0 0 80 0 80 50 0 c27 0
60 -5 74 -11z"/>
<path d="M1980 1805 c0 -43 -1 -45 -30 -45 -28 0 -30 -3 -30 -34 0 -30 3 -35
28 -38 l27 -3 5 -130 c3 -71 9 -136 14 -144 16 -24 76 -43 117 -36 37 6 39 8
39 45 0 36 -2 39 -32 42 l-33 3 -3 113 -3 112 31 0 c28 0 30 3 30 35 0 32 -2
35 -30 35 -29 0 -30 2 -30 45 l0 45 -50 0 -50 0 0 -45z"/>
<path d="M649 1760 c-130 -39 -173 -236 -73 -335 63 -63 188 -68 259 -10 l30
24 -26 26 c-26 26 -27 27 -53 10 -39 -26 -101 -23 -131 5 -14 13 -25 32 -25
42 0 16 10 18 120 18 l120 0 0 33 c0 133 -105 223 -221 187z m104 -102 c33
-39 23 -48 -53 -48 -72 0 -79 5 -59 41 22 42 79 45 112 7z"/>
<path d="M1080 1759 c-13 -6 -33 -17 -42 -26 -17 -15 -18 -15 -18 5 0 19 -6
22 -45 22 l-45 0 0 -190 0 -190 50 0 50 0 0 139 c0 153 4 164 61 164 49 0 54
-12 57 -163 l4 -140 49 0 49 0 0 134 c0 141 7 164 48 167 65 5 72 -11 72 -168
l0 -133 50 0 50 0 0 148 c0 120 -3 153 -18 182 -32 65 -128 77 -191 24 -29
-24 -30 -24 -40 -5 -19 34 -91 50 -141 30z"/>
<path d="M1659 1760 c-80 -24 -122 -89 -123 -190 0 -125 63 -194 180 -194 76
0 124 28 154 90 24 48 27 148 6 197 -32 77 -134 123 -217 97z m109 -106 c17
-20 22 -37 22 -79 0 -68 -15 -101 -52 -114 -62 -22 -100 18 -102 105 -1 109
69 156 132 88z"/>
<path d="M2295 1752 c-76 -37 -105 -86 -105 -182 0 -127 63 -193 185 -193 61
0 109 17 135 48 12 14 10 20 -13 42 -21 21 -29 24 -40 14 -46 -38 -132 -28
-156 17 -21 40 -15 42 109 42 l120 0 0 48 c0 131 -123 217 -235 164z m118 -90
c9 -8 17 -23 17 -34 0 -16 -9 -18 -70 -18 -43 0 -70 4 -70 11 0 6 13 24 30 40
32 32 57 33 93 1z"/>
<path d="M1510 1219 c-14 -6 -37 -22 -52 -36 l-28 -27 0 32 c0 27 -4 32 -25
32 l-25 0 0 -230 0 -230 25 0 25 0 0 163 c0 144 2 166 20 195 46 75 143 94
199 38 26 -26 26 -27 29 -211 l3 -185 24 0 24 0 3 174 c3 170 4 175 28 202 68
73 182 69 209 -7 6 -19 11 -103 11 -200 l0 -169 25 0 25 0 0 180 c0 204 -8
237 -62 270 -67 41 -180 20 -229 -43 l-17 -20 -11 22 c-29 53 -130 78 -201 50z"/>
<path d="M2245 1208 c-55 -33 -93 -91 -105 -162 -12 -73 -4 -127 26 -188 57
-114 212 -143 307 -59 27 25 30 31 18 45 -13 15 -16 15 -41 -9 -52 -50 -143
-52 -202 -5 -31 24 -55 73 -60 120 l-3 35 169 3 169 2 -7 53 c-17 123 -69 179
-171 185 -48 2 -68 -2 -100 -20z m152 -38 c36 -21 59 -60 64 -105 l4 -30 -139
-3 -139 -3 7 32 c21 104 122 159 203 109z"/>
</g>
</svg>
